<svg width="40" height="40" viewBox="0 0 40 40" fill="none" xmlns="http://www.w3.org/2000/svg">
<path fill-rule="evenodd" clip-rule="evenodd" d="M20.0001 0C20.5717 0 21.1377 0.023978 21.6971 0.0709831V3.60143L21.6969 3.6014V11.2312C23.2617 11.8752 24.3634 13.415 24.3634 15.2121C24.3634 17.5886 22.4368 19.5151 20.0603 19.5151C17.6838 19.5151 15.7573 17.5886 15.7573 15.2121C15.7573 13.4616 16.8025 11.9553 18.3029 11.2831V3.39381H18.303V0.0709858C18.8625 0.023979 19.4285 0 20.0001 0ZM25.8182 7.30549V4.60596H25.8183V0.85947C34.0262 3.35123 40.0001 10.978 40.0001 20H40C39.9999 29.022 34.0261 36.6487 25.8183 39.1405V35.394H25.8181V32.6945C24.8777 32.1645 24.2427 31.1564 24.2427 30C24.2427 28.2929 25.6265 26.909 27.3336 26.909C29.0406 26.909 30.4245 28.2929 30.4245 30C30.4245 31.2056 29.7342 32.25 28.7272 32.7596V33.988C33.386 31.0752 36.4849 25.8996 36.4849 20.0002V20L36.4849 20C36.4849 14.1006 33.386 8.92498 28.7273 6.01216V7.24041C29.7342 7.74994 30.4245 8.79438 30.4245 10C30.4245 11.7071 29.0407 13.091 27.3336 13.091C25.6265 13.091 24.2427 11.7071 24.2427 10C24.2427 8.84361 24.8778 7.83552 25.8182 7.30549ZM14.1818 0.859479C5.97393 3.35125 0.000118944 10.978 0.000107999 20L0 20C8.41953e-06 29.022 5.97385 36.6488 14.1818 39.1405V35.4289L14.1817 35.4289V32.7596C15.1886 32.2501 15.8789 31.2056 15.8789 30C15.8789 28.2929 14.4951 26.909 12.788 26.909C11.081 26.909 9.69714 28.2929 9.69714 30C9.69714 31.1564 10.3322 32.1645 11.2726 32.6945V33.9878C6.614 31.075 3.51523 25.8995 3.51523 20.0002V20L3.51527 20C3.51528 14.1007 6.61405 8.92518 11.2727 6.01233V7.30549C10.3323 7.83552 9.69718 8.84361 9.69718 10C9.69718 11.7071 11.081 13.091 12.7881 13.091C14.4951 13.091 15.879 11.7071 15.879 10C15.879 8.79438 15.1887 7.74994 14.1818 7.24041V4.57132L14.1818 4.57128V0.859479ZM12.7878 11.0303C13.3568 11.0303 13.8181 10.569 13.8181 9.99999C13.8181 9.43097 13.3568 8.96969 12.7878 8.96969C12.2188 8.96969 11.7575 9.43097 11.7575 9.99999C11.7575 10.569 12.2188 11.0303 12.7878 11.0303ZM28.3637 9.99999C28.3637 10.569 27.9025 11.0303 27.3334 11.0303C26.7644 11.0303 26.3031 10.569 26.3031 9.99999C26.3031 9.43097 26.7644 8.96969 27.3334 8.96969C27.9025 8.96969 28.3637 9.43097 28.3637 9.99999ZM20.0606 16.6465C20.8528 16.6465 21.495 16.0043 21.495 15.2121C21.495 14.42 20.8528 13.7778 20.0606 13.7778C19.2685 13.7778 18.6263 14.42 18.6263 15.2121C18.6263 16.0043 19.2685 16.6465 20.0606 16.6465ZM20 40C20.5716 40 21.1376 39.976 21.6971 39.929V36.3987L21.6968 36.3988V28.7688C23.2617 28.1248 24.3633 26.585 24.3633 24.7879C24.3633 22.4114 22.4368 20.4848 20.0603 20.4848C17.6838 20.4848 15.7573 22.4114 15.7573 24.7879C15.7573 26.5384 16.8025 28.0447 18.3029 28.7168V36.6062H18.303V39.929C18.8624 39.976 19.4284 40 20 40ZM12.7878 28.9697C13.3568 28.9697 13.8181 29.431 13.8181 30C13.8181 30.569 13.3568 31.0303 12.7878 31.0303C12.2187 31.0303 11.7575 30.569 11.7575 30C11.7575 29.431 12.2187 28.9697 12.7878 28.9697ZM28.3637 30C28.3637 29.431 27.9024 28.9697 27.3334 28.9697C26.7644 28.9697 26.3031 29.431 26.3031 30C26.3031 30.569 26.7644 31.0303 27.3334 31.0303C27.9024 31.0303 28.3637 30.569 28.3637 30ZM20.0606 23.3535C20.8527 23.3535 21.4949 23.9957 21.4949 24.7879C21.4949 25.58 20.8527 26.2222 20.0606 26.2222C19.2684 26.2222 18.6262 25.58 18.6262 24.7879C18.6262 23.9957 19.2684 23.3535 20.0606 23.3535Z" fill="black"/>
</svg>
